<svg width="1024" height="1024" viewBox="0 0 1024 1024" fill="none" xmlns="http://www.w3.org/2000/svg">
<rect x="62" y="62" width="900" height="900" rx="217" fill="url(#paint0_linear_228_2)"/>
<rect x="62" y="62" width="900" height="900" rx="217" stroke="url(#paint1_linear_228_2)" stroke-width="10"/>
<g filter="url(#filter0_d_228_2)">
<path fill-rule="evenodd" clip-rule="evenodd" d="M404.652 413.547L509.274 266.461L619.817 413.547L515.163 862L404.652 413.547Z" fill="#9F6FFF"/>
<path fill-rule="evenodd" clip-rule="evenodd" d="M390.631 285.801L509.101 162L633.633 285.845L619.817 413.547L509.274 266.461L404.652 413.547L390.146 287.686L390.631 285.801Z" fill="#6D3BD1"/>
<path fill-rule="evenodd" clip-rule="evenodd" d="M339.5 484.708L390.146 287.686L404.652 413.547L416.02 800.737L339.5 484.708Z" fill="#4C1D95"/>
<path fill-rule="evenodd" clip-rule="evenodd" d="M515.163 862L416.02 800.737L404.652 413.547L515.163 862Z" fill="#6D3BD1"/>
<path fill-rule="evenodd" clip-rule="evenodd" d="M608.155 800.781L515.163 862L619.817 413.547L608.155 800.781Z" fill="#6D3BD1"/>
<path fill-rule="evenodd" clip-rule="evenodd" d="M684.5 484.972L608.155 800.781L619.817 413.547L633.633 285.845L684.5 484.972Z" fill="#4C1D95"/>
</g>
<defs>
<filter id="filter0_d_228_2" x="335.5" y="162" width="353" height="708" filterUnits="userSpaceOnUse" color-interpolation-filters="sRGB">
<feFlood flood-opacity="0" result="BackgroundImageFix"/>
<feColorMatrix in="SourceAlpha" type="matrix" values="0 0 0 0 0 0 0 0 0 0 0 0 0 0 0 0 0 0 127 0" result="hardAlpha"/>
<feOffset dy="4"/>
<feGaussianBlur stdDeviation="2"/>
<feComposite in2="hardAlpha" operator="out"/>
<feColorMatrix type="matrix" values="0 0 0 0 0 0 0 0 0 0 0 0 0 0 0 0 0 0 0.25 0"/>
<feBlend mode="normal" in2="BackgroundImageFix" result="effect1_dropShadow_228_2"/>
<feBlend mode="normal" in="SourceGraphic" in2="effect1_dropShadow_228_2" result="shape"/>
</filter>
<linearGradient id="paint0_linear_228_2" x1="512" y1="57" x2="512" y2="967" gradientUnits="userSpaceOnUse">
<stop stop-color="#3D3D44"/>
<stop offset="1" stop-color="#2C2C30"/>
</linearGradient>
<linearGradient id="paint1_linear_228_2" x1="512" y1="57" x2="512" y2="967" gradientUnits="userSpaceOnUse">
<stop stop-color="#787878"/>
<stop offset="1" stop-color="#1A1A1A"/>
</linearGradient>
</defs>
</svg>
